<svg width="800" height="140" viewBox="0 0 800 140" fill="none" xmlns="http://www.w3.org/2000/svg">

  <defs>
    <linearGradient id="bgGradient" x1="0" y1="0" x2="0" y2="140">
      <stop offset="0%" stop-color="#2A2F3A"/>
      <stop offset="100%" stop-color="#11151C"/>
    </linearGradient>

    <linearGradient id="blueGlow" x1="0" y1="0" x2="1" y2="1">
      <stop offset="0%" stop-color="#1296FF"/>
      <stop offset="100%" stop-color="#0057C2"/>
    </linearGradient>
  </defs>

  <rect x="10" y="10" width="780" height="120" rx="18"
        fill="url(#bgGradient)"
        stroke="#0B0E13"
        stroke-width="2"/>

  <path d="M10 10 H250 L230 130 H10 Z"
        fill="url(#blueGlow)"/>

  <rect x="10" y="95" width="780" height="35"
        rx="0"
        fill="white"
        opacity="0.06"/>

  <g transform="translate(75,35)">
    
    <path d="M20 10 
             L120 35
             Q130 38 130 48
             V110
             Q130 122 118 122
             H110
             Q98 122 98 112
             Q98 102 108 102
             H110
             V52
             L28 30
             V102
             Q28 112 18 112
             Q8 112 8 102
             V24
             Q8 6 20 10Z"
          fill="white"/>

    <rect x="0" y="72" width="22" height="40" rx="8" fill="white"/>
    <rect x="35" y="58" width="22" height="54" rx="8" fill="white"/>
    <rect x="70" y="40" width="22" height="72" rx="8" fill="white"/>
  </g>

  <text x="320"
        y="88"
        fill="white"
        font-size="64"
        font-family="Segoe UI, Arial, sans-serif"
        font-weight="700">
    Power BI
  </text>

</svg>
