<svg width="320" height="56" viewBox="0 0 320 56" fill="none" xmlns="http://www.w3.org/2000/svg">

  <defs>
    <linearGradient id="bgGradient" x1="0" y1="0" x2="0" y2="56">
      <stop offset="0%" stop-color="#1B1F27"/>
      <stop offset="100%" stop-color="#050608"/>
    </linearGradient>

    <linearGradient id="blueGlow" x1="0" y1="0" x2="1" y2="1">
      <stop offset="0%" stop-color="#1296FF"/>
      <stop offset="100%" stop-color="#0057C2"/>
    </linearGradient>
  </defs>

  <rect x="1" y="1" width="318" height="54" rx="10"
        fill="url(#bgGradient)"
        stroke="#111"
        stroke-width="2"/>

  <rect x="1" y="1" width="72" height="54" rx="10"
        fill="url(#blueGlow)"/>

  <path d="M18 16 
           L46 23
           Q50 24 50 28
           V42
           Q50 46 46 46
           H44
           Q40 46 40 42
           Q40 38 44 38
           H44
           V28
           L22 22
           V38
           Q22 42 18 42
           Q14 42 14 38
           V20
           Q14 14 18 16Z"
        fill="white"/>

  <rect x="8" y="32" width="7" height="12" rx="2" fill="white"/>
  <rect x="18" y="27" width="7" height="17" rx="2" fill="white"/>
  <rect x="28" y="21" width="7" height="23" rx="2" fill="white"/>

  <text x="92"
        y="36"
        fill="white"
        font-size="20"
        font-family="Segoe UI, Arial, sans-serif"
        font-weight="700">
    Power BI
  </text>

</svg>
